<?xml version="1.0" encoding="utf-8"?>
<!-- Generator: Adobe Illustrator 21.0.0, SVG Export Plug-In . SVG Version: 6.00 Build 0)  -->
<svg version="1.1" id="图层_1" xmlns="http://www.w3.org/2000/svg" xmlns:xlink="http://www.w3.org/1999/xlink" x="0px" y="0px"
	 viewBox="0 0 20 20" style="enable-background:new 0 0 20 20;" xml:space="preserve">
<style type="text/css">
	.st0{fill:#FFC525;}
	.st1{fill:#00B8E3;}
	.st2{fill:#0622DF;}
</style>
<path class="st0" d="M16.6,6.6C16.6,2.9,13.6,0,10,0S3.4,2.9,3.4,6.6c0,2.3,1.2,4.4,3.1,5.5v2h7v-2C15.3,10.9,16.6,8.9,16.6,6.6z"/>
<path class="st1" d="M12.7,17.3H7.3c-0.5,0-0.8-0.4-0.8-0.8v-2.4h7v2.4C13.5,16.9,13.1,17.3,12.7,17.3z"/>
<path class="st2" d="M12.2,18.7H7.8c-0.2,0-0.3-0.1-0.3-0.3v-0.2c0-0.2,0.1-0.3,0.3-0.3h4.5c0.2,0,0.3,0.1,0.3,0.3v0.2
	C12.6,18.6,12.4,18.7,12.2,18.7z"/>
<path class="st1" d="M11.8,20H8.2c-0.2,0-0.3-0.1-0.3-0.3v-0.2c0-0.2,0.1-0.3,0.3-0.3h3.6c0.2,0,0.3,0.1,0.3,0.3v0.2
	C12.1,19.9,12,20,11.8,20z"/>
</svg>
