<?xml version="1.0" encoding="utf-8"?>
<!-- Generator: Adobe Illustrator 21.0.0, SVG Export Plug-In . SVG Version: 6.00 Build 0)  -->
<svg version="1.1" id="图层_1" xmlns="http://www.w3.org/2000/svg" xmlns:xlink="http://www.w3.org/1999/xlink" x="0px" y="0px"
	 viewBox="0 0 26 24.3" style="enable-background:new 0 0 26 24.3;" xml:space="preserve">
<style type="text/css">
	.st0{fill:#7B63FA;}
	.st1{fill:#FFFFFF;}
	.st2{fill:#BBA6FF;}
</style>
<g>
	<g>
		<path class="st0" d="M21.6,5.3v17.8c0,0.6-0.5,1-1,1H5.5c-0.6,0-1-0.5-1-1V1.2c0-0.6,0.5-1,1-1h11"/>
	</g>
	<path class="st1" d="M17.7,8.7H8.3c-0.5,0-0.9-0.4-0.9-0.9v0C7.4,7.4,7.8,7,8.3,7h9.4c0.5,0,0.9,0.4,0.9,0.9v0
		C18.6,8.3,18.2,8.7,17.7,8.7z"/>
	<path class="st1" d="M17.7,13H8.3c-0.5,0-0.9-0.4-0.9-0.9v0c0-0.5,0.4-0.9,0.9-0.9h9.4c0.5,0,0.9,0.4,0.9,0.9v0
		C18.6,12.6,18.2,13,17.7,13z"/>
	<path class="st1" d="M14.7,17.3H8.3c-0.5,0-0.9-0.4-0.9-0.9v0c0-0.5,0.4-0.9,0.9-0.9h6.4c0.5,0,0.9,0.4,0.9,0.9v0
		C15.6,16.9,15.2,17.3,14.7,17.3z"/>
	<polygon class="st2" points="21.6,5.3 16.4,5.3 16.4,0.1 	"/>
</g>
</svg>
