<?xml version="1.0" standalone="no"?><!DOCTYPE svg PUBLIC "-//W3C//DTD SVG 1.1//EN" "http://www.w3.org/Graphics/SVG/1.1/DTD/svg11.dtd"><svg t="1499763469420" class="icon" style="" viewBox="0 0 1024 1024" version="1.1" xmlns="http://www.w3.org/2000/svg" p-id="29022" xmlns:xlink="http://www.w3.org/1999/xlink" width="14" height="14"><defs><style type="text/css"></style></defs><path d="M990.4 769.2L610.9 138.9C584 89.1 551.8 65 510.6 65s-75.2 24.1-100.3 72.1L30.9 769.2c-26.9 48-28.7 90.6-7.2 127.6 21.4 36.9 59.1 55.5 111 55.5h751.9c52 0 89.5-18.4 111-55.5 19.7-37.1 17.9-79.5-7.2-127.6z m-479.7 72c-30.4 0-53.7-25.9-53.7-55.5 0-31.4 25.1-55.5 53.7-55.5 30.4 0 53.7 25.9 53.7 55.5 1.8 29.6-23.3 55.5-53.7 55.5z m44.7-219.9c0 72.1-89.5 72.1-89.5 0L448 386.5c0-35 28.6-62.9 62.6-62.9s62.6 27.7 62.6 62.9l-17.8 234.8z" p-id="29023" fill="#ff3954"></path></svg>