<?xml version="1.0" encoding="utf-8"?>
<!-- Generator: Adobe Illustrator 21.0.0, SVG Export Plug-In . SVG Version: 6.00 Build 0)  -->
<svg version="1.1" id="图层_1" xmlns="http://www.w3.org/2000/svg" xmlns:xlink="http://www.w3.org/1999/xlink" x="0px" y="0px"
	 viewBox="0 0 25.7 24" style="enable-background:new 0 0 25.7 24;" xml:space="preserve">
<style type="text/css">
	.st0{fill:#4591EF;}
</style>
<g>
	<path class="st0" d="M6.3,1H2H0.8v1.3v19.4V23H2h4.2h1.3v-1.3V2.3V1H6.3z M6.3,21.7H2V2.3h4.2V21.7z"/>
	<g>
		<g>
			<rect x="3.1" y="3.8" class="st0" width="2.1" height="0.9"/>
		</g>
		<g>
			<rect x="3.1" y="19.3" class="st0" width="2.1" height="0.9"/>
		</g>
	</g>
	<g>
		<path class="st0" d="M13.3,1H9.7H8.6v1.3v19.4V23h1.1h3.7h1.1v-1.3V2.3V1H13.3z M13.3,21.7H9.7V2.3h3.7V21.7z"/>
		<g>
			<g>
				<rect x="10.6" y="3.8" class="st0" width="1.8" height="0.9"/>
			</g>
			<g>
				<rect x="10.6" y="19.3" class="st0" width="1.8" height="0.9"/>
			</g>
		</g>
	</g>
	<g>
		<path class="st0" d="M19.4,2.5l-3.1,0.8l-0.9,0.2l0.3,1.1l4.1,17.2L20,23l0.9-0.2l3.1-0.8l0.9-0.2l-0.3-1.1L20.6,3.4l-0.3-1.1
			L19.4,2.5z M23.8,20.8l-3.1,0.8L16.6,4.4l3.1-0.8L23.8,20.8z"/>
		<g>
			<g>
				<polygon class="st0" points="19.4,5.9 17.9,6.3 17.7,5.5 19.2,5.1 				"/>
			</g>
			<g>
				<polygon class="st0" points="22.7,19.7 21.2,20.1 21,19.3 22.5,18.9 				"/>
			</g>
		</g>
	</g>
</g>
</svg>
