<?xml version="1.0" encoding="utf-8"?>
<!-- Generator: Adobe Illustrator 21.0.0, SVG Export Plug-In . SVG Version: 6.00 Build 0)  -->
<svg version="1.1" id="图层_1" xmlns="http://www.w3.org/2000/svg" xmlns:xlink="http://www.w3.org/1999/xlink" x="0px" y="0px"
	 viewBox="0 0 10 10" style="enable-background:new 0 0 10 10;" xml:space="preserve">
<style type="text/css">
	.st0{fill:#FFFFFF;}
</style>
<path class="st0" d="M5.7,5l3.7,3.7c0.2,0.2,0.2,0.5,0,0.7s-0.5,0.2-0.7,0L5,5.7L1.3,9.3c-0.2,0.2-0.5,0.2-0.7,0s-0.2-0.5,0-0.7
	L4.3,5L0.7,1.3c-0.2-0.2-0.2-0.5,0-0.7s0.5-0.2,0.7,0L5,4.3l3.7-3.7c0.2-0.2,0.5-0.2,0.7,0s0.2,0.5,0,0.7L5.7,5z"/>
</svg>
