<?xml version="1.0" encoding="utf-8"?>
<!-- Generator: Adobe Illustrator 21.0.0, SVG Export Plug-In . SVG Version: 6.00 Build 0)  -->
<svg version="1.1" xmlns="http://www.w3.org/2000/svg" xmlns:xlink="http://www.w3.org/1999/xlink" x="0px" y="0px"
	 viewBox="0 0 334 334" style="enable-background:new 0 0 334 334;" xml:space="preserve">
<style type="text/css">
	.st0{fill:#FFFFFF;}
	.st1{fill:url(#SVGID_1_);}
	.st2{fill:url(#SVGID_2_);}
	.st3{fill:none;stroke:#000333;stroke-width:2;stroke-linecap:round;stroke-linejoin:round;stroke-miterlimit:10;}
</style>
<g id="图层_2">
	<rect x="0" class="st0" width="334" height="334"/>
</g>
<g id="图层_1">
	<g>
		
			<linearGradient id="SVGID_1_" gradientUnits="userSpaceOnUse" x1="193.5" y1="227" x2="193.5" y2="116" gradientTransform="matrix(1 0 0 -1 0 334)">
			<stop  offset="1.001603e-03" style="stop-color:#6AE297"/>
			<stop  offset="0.9995" style="stop-color:#27C586"/>
		</linearGradient>
		<circle class="st1" cx="193.5" cy="162.5" r="55.5"/>
		
			<linearGradient id="SVGID_2_" gradientUnits="userSpaceOnUse" x1="141.5" y1="227" x2="141.5" y2="116" gradientTransform="matrix(1 0 0 -1 0 334)">
			<stop  offset="1.001603e-03" style="stop-color:#63B1FF"/>
			<stop  offset="0.9995" style="stop-color:#0243FF"/>
		</linearGradient>
		<circle class="st2" cx="141.5" cy="162.5" r="55.5"/>
		<g>
			<polyline class="st3" points="236.9,129.6 237,116.7 249.9,116.9 			"/>
			<polyline class="st3" points="91.8,189.9 91.8,202.8 78.9,202.8 			"/>
			<path class="st3" d="M238.9,118.1c11.2,11.5,18.1,27.2,18.1,44.6c0,18.5-7.8,35.1-20.4,46.7l5.8,25.8L221,220.1
				c-8.4,4.1-17.9,6.4-27.8,6.4c-35.3,0-63.9-28.6-63.9-63.9s28.6-63.9,63.9-63.9c10,0,19.5,2.3,28,6.4"/>
			<path class="st3" d="M90.4,201.8C82,191,77,177.4,77,162.6c0-35.3,28.6-63.9,63.9-63.9s63.9,28.6,63.9,63.9s-28.6,63.9-63.9,63.9
				c-10,0-19.5-2.3-28-6.4l-21.3,15.1l2.9-17.4"/>
		</g>
	</g>
</g>
</svg>
