<?xml version="1.0" encoding="utf-8"?>
<!-- Generator: Adobe Illustrator 21.0.0, SVG Export Plug-In . SVG Version: 6.00 Build 0)  -->
<svg version="1.1" id="图层_1" xmlns="http://www.w3.org/2000/svg" xmlns:xlink="http://www.w3.org/1999/xlink" x="0px" y="0px"
	 viewBox="0 0 20 20" style="enable-background:new 0 0 20 20;" xml:space="preserve">
<style type="text/css">
	.st0{fill:#0622DF;}
	.st1{fill:#67DEEB;}
	.st2{fill:#FFC525;}
</style>
<g>
	<path class="st0" d="M3.9,11.6C4,10.8,4.3,10,4.7,9.3C5.2,8.6,5,7.5,4.3,7C3,8.3,2.2,10,2,11.9c-0.9,0.5-1.6,1.5-1.6,2.6
		c0,1.6,1.3,3,3,3s3-1.3,3-3C6.4,13.1,5.3,11.8,3.9,11.6z"/>
	<path class="st1" d="M12.4,5.7c1.1,0.6,2.1,1.5,2.6,2.7c0.4,0.8,1.3,1.2,2.2,0.9C16.7,7,15.2,5,13,4v0c0-1.6-1.3-3-3-3S7,2.3,7,4
		s1.3,3,3,3C11,6.9,11.9,6.5,12.4,5.7z"/>
	<path class="st2" d="M16.6,11.6c-1.6,0-3,1.3-3,3c0,0.6,0.1,1.1,0.4,1.5c-1.1,0.8-2.4,1.2-3.7,1.1c-0.9,0-1.7,0.6-1.9,1.5
		c2.4,0.7,5,0.2,7-1.4c0.4,0.2,0.8,0.2,1.2,0.2c1.6,0,3-1.3,3-3C19.6,12.9,18.2,11.6,16.6,11.6L16.6,11.6z"/>
</g>
</svg>
