<?xml version="1.0" encoding="utf-8"?>
<!-- Generator: Adobe Illustrator 21.0.0, SVG Export Plug-In . SVG Version: 6.00 Build 0)  -->
<svg version="1.1" id="图层_1" xmlns="http://www.w3.org/2000/svg" xmlns:xlink="http://www.w3.org/1999/xlink" x="0px" y="0px"
	 viewBox="0 0 20 20" style="enable-background:new 0 0 20 20;" xml:space="preserve">
<style type="text/css">
	.st0{fill-rule:evenodd;clip-rule:evenodd;fill:#67DEEB;}
	.st1{fill-rule:evenodd;clip-rule:evenodd;fill:#FFC525;}
	.st2{fill-rule:evenodd;clip-rule:evenodd;fill:#00B8E3;}
	.st3{fill-rule:evenodd;clip-rule:evenodd;fill:#0622DF;}
</style>
<path class="st0" d="M9.1,9.3H5.1C2.8,9.3,1,7.5,1,5.2V5.1C1,2.8,2.8,1,5.1,1h0c2.2,0,4.1,1.8,4.1,4.1V9.3z"/>
<path class="st1" d="M10.9,9.3h4.1c2.2,0,4.1-1.8,4.1-4.1V5.1C19,2.8,17.2,1,14.9,1h0c-2.2,0-4.1,1.8-4.1,4.1V9.3z"/>
<path class="st2" d="M9.1,10.7H5.1c-2.2,0-4.1,1.8-4.1,4.1v0.2C1,17.2,2.8,19,5.1,19h0c2.2,0,4.1-1.8,4.1-4.1V10.7z"/>
<path class="st3" d="M10.9,10.7h4.1c2.2,0,4.1,1.8,4.1,4.1v0.2c0,2.2-1.8,4.1-4.1,4.1h0c-2.2,0-4.1-1.8-4.1-4.1V10.7z"/>
</svg>
