<?xml version="1.0" encoding="utf-8"?>
<!-- Generator: Adobe Illustrator 21.0.0, SVG Export Plug-In . SVG Version: 6.00 Build 0)  -->
<svg version="1.1" id="图层_1" xmlns="http://www.w3.org/2000/svg" xmlns:xlink="http://www.w3.org/1999/xlink" x="0px" y="0px"
	 viewBox="0 0 25.7 24" style="enable-background:new 0 0 25.7 24;" xml:space="preserve">
<style type="text/css">
	.st0{fill:none;}
	.st1{fill:#4591EF;}
</style>
<g>
	<g>
		<rect x="2.1" y="1.3" class="st0" width="21.4" height="21.4"/>
	</g>
	<path class="st1" d="M3.1,14.8c0.2,0.2,0.4,0.4,0.6,0.6c0.4,0.4,0.9,0.6,1.5,0.8c0.6,0.2,1.1,0.2,1.7,0.2c0,0,0.1,0,0.1,0l0.1,0
		c0.1,0,0.1,0,0.2,0c0.1,0,0.1,0,0.2,0l0.1,0c0,0,0.1,0,0.1,0c0.1,0,0.2-0.1,0.3-0.1c0,0,0,0,0.1,0c0.1,0,0.2-0.1,0.3-0.1l0,0
		c0.1-0.1,0.2-0.1,0.3-0.2c0.1-0.1,0.2-0.1,0.3-0.2c0,0,0.1-0.1,0.1-0.1l5.6,2.9c0,0,0,0.1,0,0.1c0,2.4,1.9,4.4,4.4,4.4
		s4.4-1.9,4.4-4.4S21.6,14,19.2,14c-1.1,0-2.2,0.4-3,1.2l-5.4-2.8c0,0,0,0,0-0.1c0-0.1,0-0.2,0-0.4c0-0.1,0-0.2,0-0.4c0,0,0,0,0-0.1
		l5.4-2.8c0.8,0.8,1.9,1.2,3,1.2c2.4,0,4.4-1.9,4.4-4.4s-1.9-4.4-4.4-4.4s-4.4,1.9-4.4,4.4c0,0,0,0.1,0,0.1L9.2,8.6
		c0,0-0.1-0.1-0.1-0.1C9,8.5,8.9,8.4,8.8,8.3C8.7,8.2,8.6,8.2,8.5,8.1l-0.1,0C8.3,8.1,8.2,8,8.1,8c0,0,0,0-0.1,0
		c-0.1,0-0.2-0.1-0.3-0.1c0,0-0.1,0-0.1,0l-0.1,0c-0.1,0-0.1,0-0.2,0c-0.1,0-0.1,0-0.2,0l-0.1,0c0,0-0.1,0-0.1,0
		c-0.6-0.1-1.2,0-1.7,0.2C4.7,8,4.2,8.3,3.7,8.6C3.5,8.8,3.3,9,3.1,9.2C1.8,10.8,1.8,13.2,3.1,14.8z M3,10.9
		c0.1-0.5,0.4-0.9,0.7-1.2C3.8,9.5,4,9.3,4.2,9.2c0.4-0.3,0.8-0.5,1.2-0.7c0.5-0.1,1-0.2,1.5-0.1c0,0,0.1,0,0.1,0l0.1,0
		c0,0,0.1,0,0.1,0c0.1,0,0.1,0,0.2,0l0.1,0c0,0,0,0,0.1,0c0.1,0,0.2,0.1,0.2,0.1l0.1,0c0.1,0,0.2,0.1,0.3,0.1l0,0
		c0.1,0,0.2,0.1,0.3,0.2C8.5,8.9,8.6,9,8.7,9.1C8.8,9.1,8.9,9.2,9,9.3l0.2,0.2l6.4-3.3l0-0.3c0-0.1,0-0.1,0-0.2c0-2,1.6-3.7,3.7-3.7
		s3.7,1.6,3.7,3.7s-1.6,3.7-3.7,3.7c-1,0-2-0.4-2.7-1.2L16.4,8l-6.3,3.2l0,0.2c0,0.1,0,0.2,0,0.3c0,0.1,0,0.2,0,0.3s0,0.2,0,0.3
		c0,0.1,0,0.2,0,0.3l0,0.2l6.3,3.2l0.2-0.2c0.7-0.7,1.7-1.2,2.7-1.2c2,0,3.7,1.6,3.7,3.7S21.2,22,19.2,22s-3.7-1.6-3.7-3.7
		c0-0.1,0-0.1,0-0.2l0-0.3l-6.4-3.3L9,14.7c-0.1,0.1-0.2,0.1-0.3,0.2c-0.1,0.1-0.2,0.1-0.3,0.2c-0.1,0.1-0.2,0.1-0.3,0.1l0,0l0,0
		c-0.1,0-0.2,0.1-0.3,0.1l-0.1,0c-0.1,0-0.2,0.1-0.2,0.1c0,0,0,0-0.1,0l-0.1,0c-0.1,0-0.1,0-0.2,0c0,0-0.1,0-0.1,0l-0.1,0
		c0,0-0.1,0-0.1,0c-0.5,0-1,0-1.5-0.1c-0.5-0.1-0.9-0.4-1.2-0.7c-0.2-0.2-0.3-0.3-0.5-0.5C2.9,13.4,2.6,12.1,3,10.9z"/>
	<path class="st1" d="M19.2,23c-2.5,0-4.6-2-4.6-4.5l-5.3-2.7c-0.1,0.1-0.2,0.2-0.3,0.2c-0.1,0.1-0.2,0.1-0.4,0.2
		c-0.2,0.1-0.3,0.1-0.4,0.2c0,0-0.1,0-0.1,0c-0.1,0-0.2,0.1-0.3,0.1l-0.2,0.1c-0.1,0-0.2,0-0.2,0.1c0,0-0.1,0-0.2,0l-0.1,0
		c-0.1,0-0.1,0-0.2,0c-0.6,0.1-1.2,0-1.8-0.2C4.5,16.3,4,16,3.5,15.6c-0.2-0.2-0.4-0.4-0.6-0.6l0,0c-1.4-1.7-1.4-4.2,0-5.9
		c0.2-0.2,0.4-0.4,0.6-0.6C4,8,4.5,7.7,5.1,7.6C5.7,7.4,6.3,7.3,7,7.4c0,0,0.1,0,0.2,0l0.1,0c0.1,0,0.1,0,0.2,0c0.1,0,0.2,0,0.2,0.1
		l0.2,0.1c0.1,0,0.2,0.1,0.3,0.1l0.1,0c0.1,0,0.2,0.1,0.3,0.1C8.7,7.9,8.8,8,8.9,8.1c0.1,0.1,0.2,0.2,0.3,0.2l5.3-2.7
		C14.6,3,16.7,1,19.2,1c2.6,0,4.6,2.1,4.6,4.6s-2.1,4.6-4.6,4.6c0,0,0,0,0,0c-1.1,0-2.2-0.4-3-1.1l-5,2.6c0,0.1,0,0.2,0,0.2
		c0,0.1,0,0.2,0,0.2l5,2.6c0.8-0.7,1.9-1.1,3-1.1c0,0,0,0,0,0c2.6,0,4.6,2.1,4.6,4.6S21.8,23,19.2,23z M9.2,15.1c0,0,0.1,0,0.1,0
		L15,18c0.1,0.1,0.2,0.2,0.2,0.3c0,2.3,1.8,4.1,4.1,4.1s4.1-1.8,4.1-4.1s-1.8-4.1-4.1-4.1c0,0,0,0,0,0c-1,0-2,0.4-2.8,1.1
		c-0.1,0.1-0.2,0.1-0.3,0l-5.4-2.8c-0.1-0.1-0.2-0.2-0.2-0.3c0-0.2,0-0.3,0-0.4c0-0.1,0-0.2,0-0.3c0-0.1,0-0.3,0.2-0.3l5.4-2.8
		c0.1-0.1,0.2,0,0.3,0c0.8,0.7,1.7,1.1,2.8,1.1c0,0,0,0,0,0c2.2,0,4.1-1.8,4.1-4.1s-1.8-4.1-4.1-4.1s-4.1,1.8-4.1,4.1
		c0,0.1-0.1,0.3-0.2,0.3L9.4,8.9c-0.1,0.1-0.2,0-0.3,0L8.9,8.8C8.8,8.7,8.7,8.6,8.6,8.6C8.5,8.5,8.4,8.4,8.3,8.4
		C8.2,8.3,8.1,8.3,8,8.2l-0.1,0c-0.1,0-0.2-0.1-0.3-0.1l-0.2,0C7.4,8,7.3,8,7.3,8C7.2,8,7.2,8,7.1,8L6.9,8C6.3,7.9,5.8,8,5.3,8.1
		c-0.5,0.2-1,0.4-1.4,0.7C3.7,9,3.5,9.2,3.4,9.4c-1.2,1.5-1.2,3.7,0,5.2c0,0,0,0,0,0c0.2,0.2,0.3,0.4,0.6,0.5
		c0.4,0.3,0.9,0.6,1.4,0.7C5.8,16,6.3,16.1,6.9,16l0.2,0c0.1,0,0.1,0,0.2,0c0.1,0,0.1,0,0.2,0l0.1,0l0.2,0.3l-0.1-0.3
		c0.1,0,0.2-0.1,0.3-0.1c0.2-0.1,0.3-0.1,0.4-0.2c0.1-0.1,0.2-0.1,0.3-0.2c0.1-0.1,0.2-0.1,0.3-0.2l0.1-0.1
		C9.1,15.1,9.2,15.1,9.2,15.1z M19.2,22.3c-2.2,0-4-1.8-4-4c0-0.1,0-0.2,0-0.2l0-0.1l-6.1-3.1l0,0C9.1,15,9,15.1,8.9,15.2
		c-0.1,0.1-0.2,0.1-0.3,0.2c-0.1,0.1-0.2,0.1-0.3,0.2c-0.1,0.1-0.2,0.1-0.3,0.1l-0.1,0c-0.1,0-0.2,0.1-0.3,0.1c0,0-0.1,0-0.1,0
		l-0.1,0c-0.1,0-0.1,0-0.2,0c-0.1,0-0.1,0-0.2,0l-0.2,0c-0.5,0.1-1.1,0-1.6-0.2c-0.5-0.2-0.9-0.4-1.3-0.7c-0.2-0.2-0.4-0.3-0.5-0.5
		c-0.9-1-1.1-2.4-0.7-3.7l0,0c0.2-0.5,0.4-0.9,0.7-1.3C3.6,9.3,3.8,9.1,4,8.9c0.4-0.3,0.8-0.6,1.3-0.7C5.8,8,6.4,8,6.9,8l0.2,0
		c0,0,0.1,0,0.2,0c0.1,0,0.1,0,0.2,0l0.1,0c0,0,0.1,0,0.1,0c0.1,0,0.2,0.1,0.3,0.1l0.1,0c0.1,0,0.2,0.1,0.3,0.1
		c0.1,0.1,0.2,0.1,0.4,0.2c0.1,0.1,0.2,0.1,0.3,0.2C9,8.9,9.1,9,9.2,9.1l0,0l6.1-3.1l0-0.1c0-0.1,0-0.2,0-0.2c0-2.2,1.8-4,4-4
		s4,1.8,4,4s-1.8,4-4,4c0,0,0,0,0,0c-1.1,0-2.1-0.5-2.9-1.3l0,0l-5.9,3l0,0c0,0.1,0,0.2,0,0.3c0,0.1,0,0.2,0,0.3c0,0.1,0,0.2,0,0.3
		c0,0.1,0,0.2,0,0.3l0,0l5.9,3l0,0c0.7-0.8,1.8-1.3,2.9-1.3c0,0,0,0,0,0c2.2,0,4,1.8,4,4S21.4,22.3,19.2,22.3z M9.1,14.3
		c0,0,0.1,0,0.1,0l6.4,3.3c0.1,0.1,0.2,0.2,0.2,0.3l0,0.3c0,0.1,0,0.1,0,0.2c0,1.9,1.5,3.4,3.4,3.4c1.9,0,3.4-1.5,3.4-3.4
		S21.1,15,19.2,15c0,0,0,0,0,0c-0.9,0-1.8,0.4-2.5,1.1l-0.2,0.2c-0.1,0.1-0.2,0.1-0.3,0.1L10,13c-0.1-0.1-0.2-0.2-0.2-0.3l0-0.2
		c0-0.1,0-0.2,0-0.2c0-0.1,0-0.2,0-0.3c0-0.1,0-0.2,0-0.3c0-0.1,0-0.2,0-0.2l0-0.2c0-0.1,0-0.2,0.2-0.3l6.3-3.2
		c0.1-0.1,0.3,0,0.3,0.1L16.7,8C17.4,8.6,18.3,9,19.2,9c0,0,0,0,0,0c1.9,0,3.4-1.5,3.4-3.4s-1.5-3.4-3.4-3.4c-1.9,0-3.4,1.5-3.4,3.4
		c0,0.1,0,0.1,0,0.2l0,0.3c0,0.1-0.1,0.2-0.2,0.3L9.3,9.7c-0.1,0.1-0.2,0-0.3,0L8.8,9.5C8.7,9.4,8.6,9.4,8.5,9.3
		C8.5,9.2,8.4,9.2,8.3,9.1C8.2,9.1,8.1,9,8,9C7.9,8.9,7.8,8.9,7.8,8.9l-0.1,0c-0.1,0-0.1-0.1-0.2-0.1l-0.2,0c-0.1,0-0.1,0-0.2,0
		l-0.2,0c0,0-0.1,0-0.1,0c-0.5,0-0.9,0-1.3,0.1C5.1,8.9,4.7,9.1,4.3,9.4C4.2,9.5,4,9.7,3.9,9.8c-0.3,0.3-0.5,0.7-0.6,1.1l0,0
		c-0.3,1.1-0.1,2.3,0.6,3.2c0.1,0.2,0.3,0.3,0.5,0.5c0.3,0.3,0.7,0.5,1.1,0.6c0.4,0.1,0.9,0.2,1.3,0.1l0.2,0c0,0,0.1,0,0.1,0
		c0,0,0.1,0,0.1,0l0.1,0c0.1,0,0.2-0.1,0.3-0.1l0.1,0c0.1,0,0.1-0.1,0.2-0.1c0.1-0.1,0.2-0.1,0.3-0.2c0.1-0.1,0.2-0.1,0.3-0.2
		c0.1-0.1,0.2-0.1,0.2-0.2l0.2-0.2C9,14.3,9.1,14.3,9.1,14.3z"/>
</g>
</svg>
