<?xml version="1.0" encoding="utf-8"?>
<!-- Generator: Adobe Illustrator 21.0.0, SVG Export Plug-In . SVG Version: 6.00 Build 0)  -->
<svg version="1.1" id="图层_1" xmlns="http://www.w3.org/2000/svg" xmlns:xlink="http://www.w3.org/1999/xlink" x="0px" y="0px"
	 viewBox="0 0 26 24.3" style="enable-background:new 0 0 26 24.3;" xml:space="preserve">
<style type="text/css">
	.st0{fill:#7B63FA;}
	.st1{fill:#BBA6FF;}
</style>
<g>
	<path class="st0" d="M4.9,24.1H2.5c-0.7,0-1.2-0.5-1.2-1.2V11.8c0-0.7,0.5-1.2,1.2-1.2h2.3c0.7,0,1.2,0.5,1.2,1.2v11.1
		C6.1,23.6,5.5,24.1,4.9,24.1z"/>
	<path class="st0" d="M17.3,24.1h-2.3c-0.7,0-1.2-0.5-1.2-1.2V8.4c0-0.7,0.5-1.2,1.2-1.2h2.3c0.7,0,1.2,0.5,1.2,1.2v14.6
		C18.5,23.6,17.9,24.1,17.3,24.1z"/>
	<path class="st1" d="M11.1,24.1H8.7c-0.7,0-1.2-0.5-1.2-1.2V1.4c0-0.7,0.5-1.2,1.2-1.2h2.3c0.7,0,1.2,0.5,1.2,1.2v21.6
		C12.3,23.6,11.7,24.1,11.1,24.1z"/>
	<path class="st1" d="M23.5,24.1h-2.3c-0.7,0-1.2-0.5-1.2-1.2v-6.8c0-0.7,0.5-1.2,1.2-1.2h2.3c0.7,0,1.2,0.5,1.2,1.2v6.8
		C24.7,23.6,24.1,24.1,23.5,24.1z"/>
</g>
</svg>
