<?xml version="1.0" encoding="utf-8"?>
<!-- Generator: Adobe Illustrator 21.0.0, SVG Export Plug-In . SVG Version: 6.00 Build 0)  -->
<svg version="1.1" id="图层_1" xmlns="http://www.w3.org/2000/svg" xmlns:xlink="http://www.w3.org/1999/xlink" x="0px" y="0px"
	 viewBox="0 0 30 30" style="enable-background:new 0 0 30 30;" xml:space="preserve">
<style type="text/css">
	.st0{fill:none;stroke:#246AC2;stroke-width:2;stroke-linecap:round;stroke-linejoin:round;stroke-miterlimit:10;}
	.st1{opacity:0.2;fill:#246AC2;enable-background:new    ;}
	.st2{fill-rule:evenodd;clip-rule:evenodd;fill:#256AC2;stroke:#256AC2;stroke-width:0.6;stroke-miterlimit:10;}
</style>
<path class="st0" d="M25.3,2.4H4.7c-1.8,0-3.2,1.4-3.2,3.1v14.2c0,1.7,1.4,3.1,3.2,3.1h4.7v4.8l4.8-4.8h11.1c1.8,0,3.2-1.4,3.2-3.1
	V5.5C28.5,3.8,27.1,2.4,25.3,2.4z"/>
<path class="st1" d="M26.5,3h-22C3.1,3,2,4.1,2,5.5v14.9C2,21.9,3.1,23,4.5,23H9v4c0.9-0.9,4.4-3.3,5.4-4h12.1
	c1.4,0,2.5-1.1,2.5-2.5v-15C29,4.1,27.9,3,26.5,3z"/>
<g>
	<path class="st2" d="M14,18.4L14,18.4c0,0.5,0.4,0.9,0.8,0.9c0.5,0,0.8-0.4,0.8-0.9l0,0c0-0.5-0.4-0.9-0.8-0.9
		C14.4,17.5,14,17.9,14,18.4L14,18.4z"/>
	<path class="st2" d="M16.8,12.7c1-0.6,2.3-1.3,2.3-3.2c0-2.2-1.7-3.7-4.2-3.7c-1.8,0-3.4,1.1-3.9,2.8c-0.1,0.4-0.2,1-0.1,1.6
		c0.1,0.3,0.4,0.5,0.7,0.5c0.3-0.1,0.5-0.4,0.4-0.7c0-0.2,0-0.6,0.1-0.9c0.3-1,1.4-2,2.9-2C16.8,7,18,8,18,9.5
		c0,1.1-0.6,1.5-1.7,2.1c-0.9,0.5-2.1,1.1-2.1,2.7v1.5c0,0.3,0.2,0.6,0.5,0.6c0.3,0,0.5-0.3,0.5-0.6v-1.5
		C15.4,13.5,15.9,13.2,16.8,12.7L16.8,12.7L16.8,12.7z"/>
</g>
</svg>
