<?xml version="1.0" encoding="utf-8"?>
<!-- Generator: Adobe Illustrator 21.0.0, SVG Export Plug-In . SVG Version: 6.00 Build 0)  -->
<svg version="1.1" xmlns="http://www.w3.org/2000/svg" xmlns:xlink="http://www.w3.org/1999/xlink" x="0px" y="0px"
	 viewBox="0 0 30 30" style="enable-background:new 0 0 30 30;" xml:space="preserve">
<style type="text/css">
	.st0{fill:none;stroke:#246AC2;stroke-width:2;stroke-linecap:round;stroke-linejoin:round;stroke-miterlimit:10;}
	.st1{opacity:0.2;fill:#246AC2;}
</style>
<g id="图层_1">
	<g>
		<g>
			<circle class="st0" cx="4.1" cy="25.8" r="2.6"/>
			<circle class="st0" cx="25.9" cy="25.8" r="2.6"/>
			<circle class="st0" cx="4.2" cy="4.2" r="2.6"/>
			<circle class="st0" cx="25.9" cy="4.2" r="2.6"/>
			<circle class="st0" cx="15" cy="15.5" r="3.9"/>
			<line class="st0" x1="4.2" y1="10" x2="4.2" y2="20"/>
			<line class="st0" x1="25.9" y1="10.2" x2="25.9" y2="20.2"/>
			<line class="st0" x1="20" y1="25.9" x2="10" y2="25.9"/>
			<line class="st0" x1="20" y1="4.2" x2="10" y2="4.2"/>
			<line class="st0" x1="7.9" y1="8.2" x2="9.7" y2="10"/>
			<line class="st0" x1="22.1" y1="8.2" x2="20.3" y2="10"/>
			<line class="st0" x1="7.9" y1="22" x2="9.7" y2="20.2"/>
			<line class="st0" x1="22.1" y1="22" x2="20.3" y2="20.2"/>
		</g>
		<path class="st1" d="M16,19h-1c-1.6,0-3-1.3-3-3v-1c0-1.6,1.3-3,3-3h1c1.6,0,3,1.3,3,3v1C19,17.7,17.7,19,16,19z"/>
		<path class="st1" d="M4,7L4,7C2.3,7,1,5.7,1,4v0c0-1.6,1.3-3,3-3h0c1.6,0,3,1.3,3,3v0C7,5.7,5.7,7,4,7z"/>
		<path class="st1" d="M26,7L26,7c-1.7,0-3-1.3-3-3v0c0-1.6,1.3-3,3-3h0c1.6,0,3,1.3,3,3v0C29,5.7,27.7,7,26,7z"/>
		<path class="st1" d="M26,29L26,29c-1.7,0-3-1.3-3-3v0c0-1.6,1.3-3,3-3h0c1.6,0,3,1.3,3,3v0C29,27.7,27.7,29,26,29z"/>
		<path class="st1" d="M4,29L4,29c-1.7,0-3-1.3-3-3v0c0-1.6,1.3-3,3-3h0c1.6,0,3,1.3,3,3v0C7,27.7,5.7,29,4,29z"/>
	</g>
</g>
<g id="图层_2">
</g>
</svg>
