<?xml version="1.0" standalone="no"?><!DOCTYPE svg PUBLIC "-//W3C//DTD SVG 1.1//EN" "http://www.w3.org/Graphics/SVG/1.1/DTD/svg11.dtd"><svg t="1499324560109" class="icon" style="" viewBox="0 0 1024 1024" version="1.1" xmlns="http://www.w3.org/2000/svg" p-id="2107" xmlns:xlink="http://www.w3.org/1999/xlink" width="24" height="24"><defs><style type="text/css"></style></defs><path d="M1011.580699 951.633055L571.281266 511.343495l437.703029-437.709611c16.476799-16.450473 16.476799-43.135188 0-59.58237-16.450473-16.450473-43.115443-16.450473-59.585661 0l-437.703029 437.703029-439.335242-439.335242c-16.555777-16.559068-43.385285-16.559068-59.941062 0-16.555777 16.559068-16.555777 43.411611 0 59.944353l439.331952 439.328661-435.886534 435.886533c-16.450473 16.453764-16.450473 43.131897 0 59.611987 16.48009 16.440601 43.135188 16.440601 59.585661 0l435.889824-435.902987 440.292851 440.286269c16.555777 16.562359 43.385285 16.562359 59.947644 0 16.549196-16.549196 16.549196-43.375413 0-59.941062z" p-id="2108" fill="#333333"></path></svg>