<?xml version="1.0" encoding="utf-8"?>
<!-- Generator: Adobe Illustrator 21.0.0, SVG Export Plug-In . SVG Version: 6.00 Build 0)  -->
<svg version="1.1" xmlns="http://www.w3.org/2000/svg" xmlns:xlink="http://www.w3.org/1999/xlink" x="0px" y="0px"
	 viewBox="0 0 30 30" style="enable-background:new 0 0 30 30;" xml:space="preserve">
<style type="text/css">
	.st0{fill:none;stroke:#246AC2;stroke-width:2;stroke-linecap:round;stroke-linejoin:round;stroke-miterlimit:10;}
	.st1{opacity:0.2;fill:#246AC2;}
</style>
<g id="图层_1">
	<g>
		<path class="st0" d="M25.3,2.4H4.7c-1.8,0-3.2,1.4-3.2,3.1v14.2c0,1.7,1.4,3.1,3.2,3.1h4.7v4.8l4.8-4.8h11.1
			c1.8,0,3.2-1.4,3.2-3.1V5.5C28.5,3.8,27.1,2.4,25.3,2.4z"/>
		<polyline class="st0" points="8.3,13.2 12.6,17.6 23.1,7.1 		"/>
	</g>
</g>
<g id="图层_2">
	<path class="st1" d="M26.5,3H4.5C3.1,3,2,4.1,2,5.5v14.9C2,21.9,3.1,23,4.5,23H9v4c0.9-0.9,4.4-3.3,5.4-4h12.1
		c1.4,0,2.5-1.1,2.5-2.5V5.5C29,4.1,27.9,3,26.5,3z"/>
</g>
</svg>
