<?xml version="1.0" encoding="utf-8"?>
<!-- Generator: Adobe Illustrator 21.0.0, SVG Export Plug-In . SVG Version: 6.00 Build 0)  -->
<svg version="1.1" xmlns="http://www.w3.org/2000/svg" xmlns:xlink="http://www.w3.org/1999/xlink" x="0px" y="0px"
	 viewBox="0 0 30 30" style="enable-background:new 0 0 30 30;" xml:space="preserve">
<style type="text/css">
	.st0{fill:none;stroke:#246AC2;stroke-width:1.6;stroke-linecap:round;stroke-linejoin:round;stroke-miterlimit:10;}
	.st1{fill:#246AC2;}
	.st2{opacity:0.2;fill:#246AC2;}
</style>
<g id="图层_1">
	<path class="st0" d="M17.2,26h-4.4c-1.5,0-2.8,1.2-2.8,2.8v0h9.9v0C19.9,27.2,18.7,26,17.2,26z"/>
	<line class="st0" x1="15" y1="1" x2="15" y2="25"/>
	<path class="st0" d="M13.7,4.4H7.8c-0.5,0-0.9,0.4-0.9,0.9v0c0,0.5-0.4,0.9-0.9,0.9h0c-0.5,0-0.9-0.4-0.9-0.9V4.8"/>
	<path class="st0" d="M10.9,19.7L10.9,19.7c0,1.5-1.2,2.7-2.7,2.7H3.7c-1.5,0-2.7-1.2-2.7-2.7v0l5-9L10.9,19.7z"/>
	<line class="st0" x1="10.9" y1="19.7" x2="1" y2="19.7"/>
	<line class="st0" x1="6" y1="10.7" x2="6" y2="5.9"/>
	<path class="st0" d="M13.3,4.4h8.9c0.5,0,0.9,0.4,0.9,0.9v0c0,0.5,0.4,0.9,0.9,0.9h0c0.5,0,0.9-0.4,0.9-0.9V4.8"/>
	<path class="st0" d="M19.1,19.7L19.1,19.7c0,1.5,1.2,2.7,2.7,2.7h4.5c1.5,0,2.7-1.2,2.7-2.7v0l-5-9L19.1,19.7z"/>
	<line class="st0" x1="19.1" y1="19.7" x2="29" y2="19.7"/>
	<line class="st0" x1="24" y1="10.7" x2="24" y2="5.9"/>
	<circle class="st1" cx="17" cy="28" r="0"/>
	<polygon class="st2" points="1,20 2.6,22.2 9,22 11,20 	"/>
	<polygon class="st2" points="19.2,19.5 21.2,22.3 27,22 29,20.1 	"/>
	<polygon class="st2" points="13,26 11,27 10,28 17.3,28.7 19,28 18.8,26.5 	"/>
</g>
<g id="图层_2">
</g>
</svg>
