<?xml version="1.0" encoding="utf-8"?>
<!-- Generator: Adobe Illustrator 21.0.0, SVG Export Plug-In . SVG Version: 6.00 Build 0)  -->
<svg version="1.1" id="图层_1" xmlns="http://www.w3.org/2000/svg" xmlns:xlink="http://www.w3.org/1999/xlink" x="0px" y="0px"
	 viewBox="0 0 25.7 24" style="enable-background:new 0 0 25.7 24;" xml:space="preserve">
<style type="text/css">
	.st0{fill:#4591EF;}
</style>
<g>
	<g>
		<rect x="12.2" y="1" class="st0" width="1.3" height="19.7"/>
	</g>
	<g>
		<rect x="6.3" y="21.9" class="st0" width="13.1" height="1.1"/>
	</g>
	<g>
		<path class="st0" d="M5.3,8c-0.6,1.1-3.8,6.7-3.8,8.3c0,1.8,1.9,3.3,4.3,3.3s4.3-1.5,4.3-3.3c0-1.6-3.2-7.2-3.8-8.3
			C6.2,7.6,5.5,7.6,5.3,8z M5.9,18.4c-1.4,0-2.5-0.6-2.9-1.5h5.9C8.4,17.7,7.2,18.4,5.9,18.4z M2.9,15.7c0.4-1.3,1.8-4,3-6.1
			c1.2,2.1,2.5,4.8,3,6.1H2.9z"/>
		<path class="st0" d="M19.3,8c-0.6,1.1-3.8,6.7-3.8,8.3c0,1.8,1.9,3.3,4.3,3.3s4.3-1.5,4.3-3.3c0-1.6-3.2-7.2-3.8-8.3
			C20.2,7.6,19.5,7.6,19.3,8z M19.9,18.4c-1.4,0-2.5-0.6-2.9-1.5h5.9C22.4,17.7,21.2,18.4,19.9,18.4z M16.9,15.7
			c0.4-1.3,1.8-4,3-6.1c1.2,2.1,2.5,4.8,3,6.1H16.9z"/>
		<path class="st0" d="M24.5,3.8c-0.3-0.1-0.6,0-0.8,0.3c0,0.1-1,1.9-3.8,1.9c-1.6,0-2.4-1.1-3.1-2.1c-0.4-0.6-0.9-1.2-1.4-1.5
			c-0.2-0.1-0.5-0.2-0.8-0.2v0h-3.3v0c0,0,0,0,0,0c-0.3,0-0.6,0.1-0.8,0.2C9.9,2.7,9.4,3.3,9,3.9c-0.8,1-1.5,2.1-3.1,2.1
			C3,6,2.1,4.2,2,4.1C1.9,3.8,1.5,3.7,1.3,3.8C1,4,0.9,4.3,1,4.6c0.1,0.1,1.3,2.5,4.7,2.5c0,0,0.1,0,0.1,0c2.2,0,3.2-1.5,4-2.5
			c0.4-0.5,0.7-0.9,1-1.1c0.1,0,0.2-0.1,0.3-0.1c0,0,0,0,0,0v0h3.2c0.1,0,0.2,0,0.3,0.1c0.3,0.2,0.7,0.6,1,1.1
			c0.8,1.1,1.9,2.5,4,2.5c0,0,0.1,0,0.1,0c3.5,0,4.7-2.4,4.7-2.5C24.9,4.3,24.7,4,24.5,3.8z"/>
	</g>
</g>
</svg>
