<?xml version="1.0" encoding="utf-8"?>
<!-- Generator: Adobe Illustrator 21.0.0, SVG Export Plug-In . SVG Version: 6.00 Build 0)  -->
<svg version="1.1" id="图层_1" xmlns="http://www.w3.org/2000/svg" xmlns:xlink="http://www.w3.org/1999/xlink" x="0px" y="0px"
	 viewBox="0 0 20 20" style="enable-background:new 0 0 20 20;" xml:space="preserve">
<style type="text/css">
	.st0{fill-rule:evenodd;clip-rule:evenodd;fill:#0622DF;}
	.st1{fill-rule:evenodd;clip-rule:evenodd;fill:#FFC525;}
	.st2{fill-rule:evenodd;clip-rule:evenodd;fill:#67DEEB;}
	.st3{fill-rule:evenodd;clip-rule:evenodd;fill:#00B8E3;}
</style>
<g>
	<path class="st0" d="M2.2,18.6L2.2,18.6C1.5,18,1.4,16.9,2,16.2l5.6-6.8C8.2,8.7,9.3,8.6,10,9.2l0,0c0.7,0.6,0.8,1.7,0.2,2.4
		l-5.6,6.8C4,19.1,2.9,19.2,2.2,18.6z"/>
	<path class="st1" d="M10.6,13.1L6.1,9.3c-1.1-1-1.3-2.7-0.3-3.9l0,0c0.9-1.2,2.6-1.3,3.8-0.3L14,8.9c1.1,1,1.3,2.7,0.3,3.9l0,0
		C13.4,13.9,11.7,14.1,10.6,13.1z"/>
	<path class="st2" d="M3.8,9.7L1.9,8.1c-0.4-0.4-0.5-1-0.1-1.5l4.3-5.3c0.3-0.4,1-0.5,1.4-0.1l1.9,1.6c0.4,0.4,0.5,1,0.1,1.5
		L5.2,9.6C4.8,10,4.2,10.1,3.8,9.7z"/>
	<path class="st3" d="M12.5,17l-1.9-1.6c-0.4-0.4-0.5-1-0.1-1.5l4.3-5.3c0.3-0.4,1-0.5,1.4-0.1l1.9,1.6c0.4,0.4,0.5,1,0.1,1.5
		l-4.3,5.3C13.5,17.3,12.9,17.4,12.5,17z"/>
</g>
</svg>
