<?xml version="1.0" encoding="utf-8"?>
<!-- Generator: Adobe Illustrator 21.0.0, SVG Export Plug-In . SVG Version: 6.00 Build 0)  -->
<svg version="1.1" xmlns="http://www.w3.org/2000/svg" xmlns:xlink="http://www.w3.org/1999/xlink" x="0px" y="0px"
	 viewBox="0 0 334 334" style="enable-background:new 0 0 334 334;" xml:space="preserve">
<style type="text/css">
	.st0{fill:#FFFFFF;}
	.st1{fill:url(#SVGID_1_);}
	.st2{fill:url(#SVGID_2_);}
	.st3{fill:url(#SVGID_3_);}
	.st4{fill:none;stroke:#333333;stroke-width:2;stroke-linecap:round;stroke-linejoin:round;stroke-miterlimit:10;}
</style>
<g id="图层_2_1_">
	<rect class="st0" width="334" height="334"/>
</g>
<g id="图层_1">
	<g id="图层_2">
		
			<linearGradient id="SVGID_1_" gradientUnits="userSpaceOnUse" x1="167" y1="166.5" x2="167" y2="96" gradientTransform="matrix(1 0 0 -1 0 334)">
			<stop  offset="1.001603e-03" style="stop-color:#63B1FF"/>
			<stop  offset="0.1605" style="stop-color:#5EABFF"/>
			<stop  offset="0.3707" style="stop-color:#4F9BFF"/>
			<stop  offset="0.6093" style="stop-color:#377FFF"/>
			<stop  offset="0.867" style="stop-color:#1659FF"/>
			<stop  offset="0.9995" style="stop-color:#0243FF"/>
		</linearGradient>
		<polygon class="st1" points="110.2,167.5 110.2,238 223.8,238 223.8,167.5 167,203.4 		"/>
		
			<linearGradient id="SVGID_2_" gradientUnits="userSpaceOnUse" x1="116.8" y1="175.0695" x2="116.8" y2="157.75" gradientTransform="matrix(1 0 0 -1 0 334)">
			<stop  offset="0.3559" style="stop-color:#6AE297"/>
			<stop  offset="0.5083" style="stop-color:#66E096"/>
			<stop  offset="0.6695" style="stop-color:#59DB93"/>
			<stop  offset="0.8345" style="stop-color:#44D28D"/>
			<stop  offset="0.9995" style="stop-color:#27C586"/>
		</linearGradient>
		<polygon class="st2" points="122.6,158.9 110.2,167.5 123.4,176.2 		"/>
		
			<linearGradient id="SVGID_3_" gradientUnits="userSpaceOnUse" x1="217.15" y1="175.9704" x2="217.15" y2="157.75" gradientTransform="matrix(1 0 0 -1 0 334)">
			<stop  offset="0.3559" style="stop-color:#6AE297"/>
			<stop  offset="0.5083" style="stop-color:#66E096"/>
			<stop  offset="0.6695" style="stop-color:#59DB93"/>
			<stop  offset="0.8345" style="stop-color:#44D28D"/>
			<stop  offset="0.9995" style="stop-color:#27C586"/>
		</linearGradient>
		<polygon class="st3" points="210.5,158 210.5,176.2 223.8,167.5 		"/>
	</g>
	<g id="图层_1_1_">
		<g>
			<g>
				<polyline class="st4" points="210.5,158 223.8,167.5 223.8,238 110.2,238 110.2,167.5 123.1,158.6 				"/>
				<polyline class="st4" points="223.8,167.5 167,203.4 152.4,194.2 137.6,184.8 110.2,167.5 				"/>
			</g>
			<line class="st4" x1="213" y1="225.5" x2="196.2" y2="206.4"/>
			<line class="st4" x1="121.5" y1="225.5" x2="137.8" y2="206.4"/>
			<polyline class="st4" points="210.5,168.9 210.5,146.4 201.4,118.9 210.5,96 155.5,96 137.4,96 123.5,96 114.3,118.9 
				123.5,146.4 123.5,168.9 			"/>
			<line class="st4" x1="192.2" y1="118.9" x2="128.1" y2="118.9"/>
			<line class="st4" x1="141.8" y1="178.5" x2="192.2" y2="178.5"/>
			<polyline class="st4" points="132.6,146.4 141.8,146.4 157.9,146.4 201.4,146.4 			"/>
		</g>
	</g>
</g>
</svg>
