<?xml version="1.0" encoding="utf-8"?>
<!-- Generator: Adobe Illustrator 21.0.0, SVG Export Plug-In . SVG Version: 6.00 Build 0)  -->
<svg version="1.1" id="图层_1" xmlns="http://www.w3.org/2000/svg" xmlns:xlink="http://www.w3.org/1999/xlink" x="0px" y="0px"
	 viewBox="0 0 25.7 24" style="enable-background:new 0 0 25.7 24;" xml:space="preserve">
<style type="text/css">
	.st0{fill:none;}
	.st1{fill:#4591EF;}
	.st2{fill:#FFFFFF;}
</style>
<title>sq1</title>
<rect x="1.9" y="1" class="st0" width="22" height="22"/>
<path class="st1" d="M20.4,12.8"/>
<path class="st1" d="M20.4,11.3"/>
<path class="st1" d="M5.3,12.8"/>
<path class="st1" d="M5.3,11.3"/>
<g>
	<path class="st2" d="M15,12c2.7-2.2,4.3-5.4,4.3-8.9V2.4H6.4v0.7c0,3.5,1.6,6.8,4.3,8.9c-2.7,2.1-4.3,5.4-4.3,8.9v0.7h12.9v-0.7
		C19.3,17.4,17.7,14.2,15,12z M9.6,20.9l3.4-2.4l3.4,2.4H9.6z M17.6,20.9L13,17.7l-4.6,3.2H7.1l0,0c0-3.4,1.7-6.6,4.4-8.6l0.4-0.3
		l-0.4-0.3c-2.8-2-4.4-5.2-4.4-8.6l0,0h11.6c0,3.4-1.7,6.6-4.4,8.6L13.8,12l0.4,0.3c2.8,2,4.4,5.2,4.4,8.7L17.6,20.9z"/>
	<rect x="12.6" y="13.7" class="st2" width="0.7" height="0.7"/>
	<rect x="12.6" y="12.3" class="st2" width="0.7" height="0.7"/>
	<path class="st2" d="M16.9,7.2V6.5h-2.7c-0.5,0-1.1,0.3-1.4,0.7c-0.3-0.4-0.8-0.7-1.4-0.7H8.7v0.7h2.8c0.6,0,1,0.5,1,1h0.7
		c0-0.6,0.5-1,1-1H16.9z"/>
	<rect x="12.6" y="15.1" class="st2" width="0.7" height="0.7"/>
</g>
<rect x="4.4" y="1" class="st2" width="0.9" height="22"/>
<rect x="2.9" y="1" class="st2" width="19.9" height="0.9"/>
<rect x="2.9" y="22.1" class="st2" width="19.9" height="0.9"/>
<rect x="20.4" y="1" class="st2" width="0.9" height="22"/>
<text transform="matrix(1 0 0 1 280 -6)" style="font-family:'AdobeSongStd-Light-GBpc-EUC-H'; font-size:12px;">滚滚长江东逝水</text>
</svg>
