<?xml version="1.0" encoding="utf-8"?>
<!-- Generator: Adobe Illustrator 21.0.0, SVG Export Plug-In . SVG Version: 6.00 Build 0)  -->
<svg version="1.1" id="图层_1" xmlns="http://www.w3.org/2000/svg" xmlns:xlink="http://www.w3.org/1999/xlink" x="0px" y="0px"
	 viewBox="0 0 100 100" style="enable-background:new 0 0 100 100;" xml:space="preserve">
<style type="text/css">
	.st0{fill:#246AC2;}
	.st1{fill:#FFFFFF;}
	.st2{fill:#4591EF;}
</style>
<path class="st0" d="M85.2,24.5H14.8c-2.8,0-5,2.3-5,5v42.8c0,2.8,2.3,5,5,5h32.7V85H34.9c-1.4,0-2.5,1.1-2.5,2.5
	c0,1.4,1.1,2.5,2.5,2.5h30.2c1.4,0,2.5-1.1,2.5-2.5c0-1.4-1.1-2.5-2.5-2.5H52.5v-7.6h32.7c2.8,0,5-2.3,5-5V29.6
	C90.3,26.8,88,24.5,85.2,24.5L85.2,24.5z M85.2,29.6v33.1H14.8V29.6C14.8,29.6,85.2,29.6,85.2,29.6z M14.8,72.4v-4.8h70.5v4.8
	C85.2,72.4,14.8,72.4,14.8,72.4z"/>
<rect x="29.4" y="20.2" class="st1" width="41.1" height="13"/>
<path class="st2" d="M52,10.7l-0.1-0.1h0l-0.2-0.1c-0.1,0-0.2-0.1-0.3-0.2c-0.1,0-0.2-0.1-0.3-0.1c-0.1-0.1-0.2-0.1-0.3-0.1
	c-0.4-0.1-0.9-0.1-1.3,0c-0.1,0-0.2,0-0.3,0.1c-0.1,0-0.2,0-0.3,0.1c-0.1,0-0.2,0.1-0.3,0.2l-0.2,0.1c-0.2,0.1-0.4,0.2-0.5,0.4
	L34.5,24.2c-1.3,1.3-1.3,3.4,0,4.7c1.3,1.3,3.4,1.3,4.7,0l7.6-7.6v26.2c0,1.8,1.5,3.3,3.3,3.3s3.3-1.5,3.3-3.3V21.3l7.6,7.6
	c1.3,1.3,3.4,1.3,4.7,0c0.7-0.7,1-1.5,1-2.4s-0.3-1.7-0.9-2.4L52.3,10.9C52.3,10.9,52.2,10.8,52,10.7L52,10.7z"/>
</svg>
