<?xml version="1.0" encoding="utf-8"?>
<!-- Generator: Adobe Illustrator 21.0.0, SVG Export Plug-In . SVG Version: 6.00 Build 0)  -->
<svg version="1.1" xmlns="http://www.w3.org/2000/svg" xmlns:xlink="http://www.w3.org/1999/xlink" x="0px" y="0px"
	 viewBox="0 0 334 334" style="enable-background:new 0 0 334 334;" xml:space="preserve">
<style type="text/css">
	.st0{fill:#FFFFFF;}
	.st1{fill:url(#SVGID_1_);}
	.st2{fill:url(#SVGID_2_);}
	.st3{fill:none;stroke:#333333;stroke-width:2;stroke-linecap:round;stroke-linejoin:round;stroke-miterlimit:10;}
</style>
<g id="图层_2">
	<rect class="st0" width="334" height="334"/>
</g>
<g id="图层_1">
	<linearGradient id="SVGID_1_" gradientUnits="userSpaceOnUse" x1="165.8" y1="105.2" x2="165.8" y2="228.8">
		<stop  offset="0.3559" style="stop-color:#6AE297"/>
		<stop  offset="0.5083" style="stop-color:#66E096"/>
		<stop  offset="0.6695" style="stop-color:#59DB93"/>
		<stop  offset="0.8345" style="stop-color:#44D28D"/>
		<stop  offset="0.9995" style="stop-color:#27C586"/>
	</linearGradient>
	<path class="st1" d="M118.7,105.2V212c0,0,1,9.5,9.4,16.8h84.8c0,0-6.2-9.3-6.7-13.8s-0.5-18.3-0.5-18.3l-62.3-0.5l-9.3-90.9
		L118.7,105.2z"/>
	<linearGradient id="SVGID_2_" gradientUnits="userSpaceOnUse" x1="170.3999" y1="105.4" x2="170.3999" y2="196.2554">
		<stop  offset="1.001603e-03" style="stop-color:#63B1FF"/>
		<stop  offset="0.9995" style="stop-color:#0243FF"/>
	</linearGradient>
	<path class="st2" d="M128,105.4h84.8v76.7h-56.2c0,0,2.2,12.9-13.3,14.1S128,178.7,128,178.7V105.4z"/>
	<rect x="155.3" y="96" class="st0" width="27.5" height="18.3"/>
	<g>
		<g>
			<g>
				<path class="st3" d="M128,105.4v75.5c0,8.5,6.9,15.4,15.4,15.4l0,0"/>
				<polyline class="st3" points="212.8,171.5 212.8,105.4 192,105.4 				"/>
				<path class="st3" d="M156.7,182.1v1.5c0,5.1-3.1,9.8-7.8,11.6c-1.7,0.6-3.5,1-5.5,1h84.8c0.2,0,0.5,0,0.7,0
					c6.6-0.3,11.6-5.9,11.6-12.5V182L156.7,182.1L156.7,182.1z"/>
				<g>
					<g>
						<line class="st3" x1="154.8" y1="128.3" x2="195.8" y2="128.3"/>
						<line class="st3" x1="145.7" y1="137.5" x2="195.8" y2="137.5"/>
						<line class="st3" x1="145.7" y1="146.6" x2="195.8" y2="146.6"/>
						<line class="st3" x1="145.7" y1="155.7" x2="195.8" y2="155.7"/>
						<line class="st3" x1="145.7" y1="164.9" x2="180.1" y2="164.9"/>
					</g>
				</g>
			</g>
			<path class="st3" d="M205.7,196.8v13.7l0,0c0,5.9,2.3,11.5,6.5,15.6l2.7,2.7h-27.3H169h-41l-2.9-2.9c-4.1-4.1-6.5-9.8-6.5-15.6
				v-63.9v-18.3v-22.9"/>
			<polyline class="st3" points="196.6,238 109.5,238 109.5,105.2 137,105.2 			"/>
			<path class="st3" d="M182.8,114.3V96h-27.5v18.3C155.3,114.3,183.6,114.3,182.8,114.3z"/>
			<polyline class="st3" points="146.1,105.2 146.1,96 155.3,96 			"/>
		</g>
		<line class="st3" x1="140.8" y1="205.8" x2="189.1" y2="205.8"/>
		<line class="st3" x1="140.8" y1="215" x2="189.1" y2="215"/>
	</g>
	<path class="st3" d="M128,105.4"/>
</g>
</svg>
