<?xml version="1.0" encoding="utf-8"?>
<!-- Generator: Adobe Illustrator 21.0.0, SVG Export Plug-In . SVG Version: 6.00 Build 0)  -->
<svg version="1.1" id="图层_1" xmlns="http://www.w3.org/2000/svg" xmlns:xlink="http://www.w3.org/1999/xlink" x="0px" y="0px"
	 viewBox="0 0 80 80" style="enable-background:new 0 0 80 80;" xml:space="preserve">
<style type="text/css">
	.st0{fill:#2C97FF;}
	.st1{fill:#99D3FF;}
	.st2{fill:#FFFFFF;}
</style>
<g>
	<g>
		<path class="st0" d="M8.5,0c-1.5,0-3,1.5-3,3v74c0,1.5,1.5,3,3,3h63c1.5,0,3-1.5,3-3V17.5L57,0H8.5z"/>
	</g>
	<g>
		<path class="st1" d="M57,0v14.4c0,1.5,1.5,3.1,3.1,3.1h14.4L57,0z"/>
	</g>
	<g>
		<path class="st2" d="M58,59.5c-0.8,0-1.5-0.3-2-0.9L40,42l-16,16.7c-0.8,0.8-2,1.1-3.1,0.7c-1.1-0.4-1.8-1.5-1.8-2.6V28.9
			c0-1.5,1.3-2.8,2.8-2.8c1.5,0,2.8,1.3,2.8,2.8v20.9L38,36c0.5-0.6,1.3-0.9,2-0.9c0,0,0,0,0,0c0.8,0,1.5,0.3,2,0.9l13.1,13.7V28.9
			c0-1.5,1.3-2.8,2.8-2.8c1.5,0,2.8,1.3,2.8,2.8v27.9c0,1.1-0.7,2.2-1.8,2.6C58.7,59.5,58.3,59.5,58,59.5z"/>
	</g>
</g>
</svg>
